<svg width="11" height="11" viewBox="0 0 11 11" fill="none" xmlns="http://www.w3.org/2000/svg">
<path d="M5.34562 0.0140224C5.62832 -0.0389844 5.93355 0.0608449 6.13056 0.270222C7.66599 1.80499 9.20053 3.34019 10.7355 4.87496C10.8771 5.01189 10.9701 5.19852 10.993 5.3942C11.0246 5.65217 10.9372 5.92471 10.7519 6.10847C9.26083 7.59973 7.7698 9.09054 6.27876 10.5818C6.17628 10.6783 6.08683 10.7916 5.96514 10.8658C5.71137 11.0288 5.36925 11.0456 5.10245 10.9036C4.86481 10.7865 4.69099 10.5522 4.64129 10.2927C4.58785 10.0201 4.67111 9.72176 4.86812 9.52409C5.91765 8.47434 6.96741 7.4248 8.01694 6.37505C5.64555 6.37505 3.27416 6.37549 0.902774 6.37483C0.649446 6.38168 0.394793 6.2761 0.225834 6.08638C-0.0319109 5.81141 -0.074758 5.36417 0.126888 5.04569C0.281933 4.78617 0.578329 4.62141 0.880467 4.62539C3.25804 4.62428 5.63539 4.62472 8.01274 4.62517C7.0129 3.62687 6.01439 2.62703 5.01499 1.62808C4.91605 1.52803 4.80871 1.43195 4.74046 1.30694C4.61943 1.09646 4.59204 0.834743 4.66846 0.604385C4.76277 0.303351 5.03377 0.0652622 5.34562 0.0140224Z" fill="white"/>
</svg>
