<svg width="14" height="13" viewBox="0 0 14 13" fill="none" xmlns="http://www.w3.org/2000/svg">
<path d="M3.55653 5.62972C4.59653 7.67361 6.26848 9.34555 8.31598 10.3856L9.90487 8.79306C10.1035 8.59444 10.3888 8.53667 10.6379 8.61611C11.4468 8.88333 12.3171 9.02778 13.2163 9.02778C13.6171 9.02778 13.9385 9.34917 13.9385 9.75V12.2778C13.9385 12.6786 13.6171 13 13.2163 13C6.43459 13 0.938477 7.50389 0.938477 0.722222C0.938477 0.321389 1.26348 0 1.6607 0H4.18848C4.58931 0 4.9107 0.321389 4.9107 0.722222C4.9107 1.62139 5.05514 2.49167 5.32237 3.30056C5.40181 3.54972 5.34403 3.835 5.14542 4.03361L3.55653 5.62972Z" fill="#303030"/>
</svg>
