<svg width="922" height="760" viewBox="0 0 922 760" fill="none" xmlns="http://www.w3.org/2000/svg">
<path d="M-665.156 0H278.825C278.359 2.14647 276.146 3.22802 274.798 4.75884C228.191 51.3655 181.584 97.9888 134.978 144.596C110.418 169.505 84.1946 193.182 64.2441 222.135C33.5945 265.181 13.3777 315.531 5.54065 367.778C0.1828 406.348 0.415771 445.85 8.05322 484.104C21.3148 553.257 57.0393 617.767 108.338 665.955C154.762 710.016 213.931 740.466 276.811 752.479C348.909 766.589 425.5 756.556 491.425 724.076C525.136 707.57 556.002 685.323 582.525 658.75C699.083 542.192 815.692 425.683 932.217 309.108V898.522H-665.156V0Z" fill="#F8F8F8"/>
</svg>
