<svg width="163" height="141" viewBox="0 0 163 141" fill="none" xmlns="http://www.w3.org/2000/svg">
<path d="M54.9746 121.207L51.9247 120.477C39.6874 116.954 28.2391 109.933 20.5298 99.681C14.0617 91.2596 10.7951 80.5896 10.8886 70.0144C10.847 65.2161 11.647 60.4707 12.5141 55.7653L12.7105 54.9448C15.5694 46.2681 19.5997 37.8095 25.7951 30.9907C33.5471 22.2198 44.4878 16.5656 55.9741 14.5457C62.9995 13.2411 70.2266 13.1783 77.3104 14.035C82.8509 14.8243 88.4085 16.0634 93.3984 18.6717C105.356 24.7261 114.858 34.4441 123.913 44.1077C126.435 46.8442 129.468 49.526 133.277 50.1117C136.966 50.5392 140.756 49.1984 143.522 46.7641C148.984 42.1664 153.906 36.9792 158.825 31.8249C158.911 40.1086 157.89 48.3625 156.299 56.475L155.819 58.4787C154.433 63.2276 152.97 67.9773 150.836 72.461C146.507 81.7875 140.214 90.1552 132.679 97.1375C117.722 111.292 97.8368 119.915 77.3759 121.9C69.915 122.679 62.3761 122.36 54.9746 121.207Z" fill="url(#paint0_linear_104_129)"/>
<path d="M54.9746 121.207L51.9247 120.477C39.6874 116.954 28.2391 109.933 20.5298 99.681C14.0617 91.2596 10.7951 80.5896 10.8886 70.0144C10.847 65.2161 11.647 60.4707 12.5141 55.7653L12.7105 54.9448C15.5694 46.2681 19.5997 37.8095 25.7951 30.9907C33.5471 22.2198 44.4878 16.5656 55.9741 14.5457C62.9995 13.2411 70.2266 13.1783 77.3104 14.035C82.8509 14.8243 88.4085 16.0634 93.3984 18.6717C105.356 24.7261 114.858 34.4441 123.913 44.1077C126.435 46.8442 129.468 49.526 133.277 50.1117C136.966 50.5392 140.756 49.1984 143.522 46.7641C148.984 42.1664 153.906 36.9792 158.825 31.8249C158.911 40.1086 157.89 48.3625 156.299 56.475L155.819 58.4787C154.433 63.2276 152.97 67.9773 150.836 72.461C146.507 81.7875 140.214 90.1552 132.679 97.1375C117.722 111.292 97.8368 119.915 77.3759 121.9C69.915 122.679 62.3761 122.36 54.9746 121.207Z" fill="url(#paint1_linear_104_129)"/>
<defs>
<linearGradient id="paint0_linear_104_129" x1="137.447" y1="135.235" x2="-3.02473" y2="90.2982" gradientUnits="userSpaceOnUse">
<stop stop-color="#3668EA"/>
<stop offset="1" stop-color="#5FB6FF"/>
</linearGradient>
<linearGradient id="paint1_linear_104_129" x1="137.447" y1="135.235" x2="-3.02473" y2="90.2982" gradientUnits="userSpaceOnUse">
<stop stop-color="#3668EA"/>
<stop offset="1" stop-color="#5FB6FF"/>
</linearGradient>
</defs>
</svg>
