<svg width="921" height="759" viewBox="0 0 921 759" fill="none" xmlns="http://www.w3.org/2000/svg">
<path d="M277.929 0H920.894V318.863C908.564 330.66 896.715 342.959 884.573 354.951C782.52 457.004 680.422 559.027 578.354 661.08C558.312 680.702 535.872 697.896 511.648 712.047C455.173 745.212 388.894 761.057 323.537 757.796C272.488 755.316 222.046 741.135 177.263 716.499C130.614 690.985 90.1403 654.297 60.1075 610.421C30.6369 567.482 11.2247 517.692 4.05192 466.096C-0.53506 433.335 -0.00291002 399.959 4.58407 367.236C12.4464 315.04 32.7131 264.748 63.3604 221.757C79.6247 198.237 100.094 178.09 120.338 158.041C171.237 107.269 221.979 56.3404 272.833 5.51637C274.669 3.8075 276.58 2.15108 277.929 0Z" fill="white"/>
</svg>
