<svg width="155" height="131" viewBox="0 0 155 131" fill="none" xmlns="http://www.w3.org/2000/svg">
<path d="M98.2989 12.215L101.405 12.6484C113.924 14.9787 125.995 20.8657 134.654 30.3292C141.902 38.0896 146.179 48.3961 147.103 58.9313C147.606 63.7033 147.266 68.5037 146.855 73.2707L146.739 74.1063C144.727 83.0176 141.529 91.8246 136.018 99.2075C129.146 108.683 118.799 115.363 107.56 118.478C100.693 120.452 93.5054 121.21 86.372 121.038C80.7813 120.785 75.1303 120.086 69.9127 117.97C57.4281 113.094 47.0354 104.334 37.0936 95.5861C34.3205 93.1048 31.0429 90.7272 27.1953 90.5104C23.4828 90.4396 19.8391 92.1386 17.32 94.8276C12.3251 99.9293 7.92476 105.566 3.52426 111.169C2.64268 102.932 2.86494 94.6182 3.66892 86.3903L3.95362 84.3497C4.87672 79.4895 5.87635 74.6212 7.56896 69.953C10.9813 60.2535 16.4402 51.3195 23.2688 43.645C36.7954 28.1179 55.7595 17.6229 75.9347 13.679C83.2861 12.1867 90.8207 11.7788 98.2989 12.215Z" fill="url(#paint0_linear_104_131)"/>
<path d="M98.2989 12.215L101.405 12.6484C113.924 14.9787 125.995 20.8657 134.654 30.3292C141.902 38.0896 146.179 48.3961 147.103 58.9313C147.606 63.7033 147.266 68.5037 146.855 73.2707L146.739 74.1063C144.727 83.0176 141.529 91.8246 136.018 99.2075C129.146 108.683 118.799 115.363 107.56 118.478C100.693 120.452 93.5054 121.21 86.372 121.038C80.7813 120.785 75.1303 120.086 69.9127 117.97C57.4281 113.094 47.0354 104.334 37.0936 95.5861C34.3205 93.1048 31.0429 90.7272 27.1953 90.5104C23.4828 90.4396 19.8391 92.1386 17.32 94.8276C12.3251 99.9293 7.92476 105.566 3.52426 111.169C2.64268 102.932 2.86494 94.6182 3.66892 86.3903L3.95362 84.3497C4.87672 79.4895 5.87635 74.6212 7.56896 69.953C10.9813 60.2535 16.4402 51.3195 23.2688 43.645C36.7954 28.1179 55.7595 17.6229 75.9347 13.679C83.2861 12.1867 90.8207 11.7788 98.2989 12.215Z" fill="url(#paint1_linear_104_131)"/>
<defs>
<linearGradient id="paint0_linear_104_131" x1="14.8594" y1="6.18255" x2="159.002" y2="37.4035" gradientUnits="userSpaceOnUse">
<stop stop-color="#3668EA"/>
<stop offset="1" stop-color="#5FB6FF"/>
</linearGradient>
<linearGradient id="paint1_linear_104_131" x1="14.8594" y1="6.18255" x2="159.002" y2="37.4035" gradientUnits="userSpaceOnUse">
<stop stop-color="#3668EA"/>
<stop offset="1" stop-color="#5FB6FF"/>
</linearGradient>
</defs>
</svg>
